<?xml version="1.0" encoding="UTF-8" standalone="no"?>
<!-- Created with Inkscape (http://www.inkscape.org/) -->

<svg
   xmlns:dc="http://purl.org/dc/elements/1.1/"
   xmlns:cc="http://creativecommons.org/ns#"
   xmlns:rdf="http://www.w3.org/1999/02/22-rdf-syntax-ns#"
   xmlns:svg="http://www.w3.org/2000/svg"
   xmlns="http://www.w3.org/2000/svg"
   xmlns:sodipodi="http://sodipodi.sourceforge.net/DTD/sodipodi-0.dtd"
   xmlns:inkscape="http://www.inkscape.org/namespaces/inkscape"
   width="62.193741mm"
   height="65.013008mm"
   viewBox="0 0 62.19374 65.013009"
   version="1.1"
   id="svg8"
   inkscape:version="0.92.3 (2405546, 2018-03-11)"
   sodipodi:docname="small.svg">
  <defs
     id="defs2" />
  <sodipodi:namedview
     id="base"
     pagecolor="#ffffff"
     bordercolor="#666666"
     borderopacity="1.0"
     inkscape:pageopacity="0.0"
     inkscape:pageshadow="2"
     inkscape:zoom="1.979899"
     inkscape:cx="-50.169889"
     inkscape:cy="117.97467"
     inkscape:document-units="mm"
     inkscape:current-layer="layer1"
     showgrid="false"
     inkscape:window-width="1920"
     inkscape:window-height="1012"
     inkscape:window-x="1920"
     inkscape:window-y="32"
     inkscape:window-maximized="1" />
  <metadata
     id="metadata5">
    <rdf:RDF>
      <cc:Work
         rdf:about="">
        <dc:format>image/svg+xml</dc:format>
        <dc:type
           rdf:resource="http://purl.org/dc/dcmitype/StillImage" />
        <dc:title />
      </cc:Work>
    </rdf:RDF>
  </metadata>
  <g
     inkscape:label="Layer 1"
     inkscape:groupmode="layer"
     id="layer1"
     transform="translate(-108.9875,-122.9995)">
    <circle
       style="fill:none;fill-opacity:1;stroke:#000000;stroke-width:2.70000005;stroke-miterlimit:4;stroke-dasharray:none;stroke-opacity:1"
       id="path3722-3"
       cx="140.08437"
       cy="156.91563"
       r="29.74687" />
    <circle
       style="fill:#000000;fill-opacity:1;stroke:#000000;stroke-width:0.90500271;stroke-miterlimit:4;stroke-dasharray:none;stroke-opacity:1"
       id="path4547-7"
       cx="139.9995"
       cy="126.9995"
       r="3.5474987" />
    <g
       transform="matrix(0.68434559,0,0,0.69592109,44.617198,73.240143)"
       style="display:inline"
       id="text10003">
      <path
         d="m 141.65312,126.90327 c 9.94,-1.05 15.26,-6.51 15.26,-15.82 0,-6.44 -2.73,-11.340003 -7.77,-14.070003 -3.15,-1.75 -7.63,-2.52 -14.49,-2.52 h -12.81 v 51.730003 h 5.18 V 99.183267 h 7.28 c 5.46,0 9.1,0.56 11.9,1.890003 3.5,1.68 5.46,5.18 5.46,9.87 0,5.88 -2.66,9.59 -7.84,10.92 -2.45,0.63 -5.53,0.91 -11.55,0.91 l 17.43,23.45 h 6.44 z"
         id="path4595"
         inkscape:connector-curvature="0" />
    </g>
  </g>
</svg>
