<?xml version="1.0" encoding="UTF-8" standalone="no"?>
<!-- Created with Inkscape (http://www.inkscape.org/) -->

<svg
   width="234.11871mm"
   height="84.400002mm"
   viewBox="0 0 234.11873 84.400002"
   version="1.1"
   id="svg8"
   inkscape:version="1.1.2 (0a00cf5339, 2022-02-04)"
   sodipodi:docname="vectorized_logo.svg"
   inkscape:export-filename="vectorized_logo.png"
   inkscape:export-xdpi="899.84998"
   inkscape:export-ydpi="899.84998"
   xmlns:inkscape="http://www.inkscape.org/namespaces/inkscape"
   xmlns:sodipodi="http://sodipodi.sourceforge.net/DTD/sodipodi-0.dtd"
   xmlns:xlink="http://www.w3.org/1999/xlink"
   xmlns="http://www.w3.org/2000/svg"
   xmlns:svg="http://www.w3.org/2000/svg"
   xmlns:rdf="http://www.w3.org/1999/02/22-rdf-syntax-ns#"
   xmlns:cc="http://creativecommons.org/ns#"
   xmlns:dc="http://purl.org/dc/elements/1.1/">
  <defs
     id="defs2" />
  <sodipodi:namedview
     id="base"
     pagecolor="#ffffff"
     bordercolor="#666666"
     borderopacity="1.0"
     inkscape:pageopacity="0.0"
     inkscape:pageshadow="2"
     inkscape:zoom="1.4142136"
     inkscape:cx="318.5516"
     inkscape:cy="160.51324"
     inkscape:document-units="mm"
     inkscape:current-layer="layer1"
     showgrid="false"
     inkscape:window-width="1856"
     inkscape:window-height="1011"
     inkscape:window-x="64"
     inkscape:window-y="32"
     inkscape:window-maximized="1"
     inkscape:pagecheckerboard="0"
     width="247.01682mm"
     fit-margin-top="0.2"
     fit-margin-left="0.2"
     fit-margin-right="0.2"
     fit-margin-bottom="0.2" />
  <metadata
     id="metadata5">
    <rdf:RDF>
      <cc:Work
         rdf:about="">
        <dc:format>image/svg+xml</dc:format>
        <dc:type
           rdf:resource="http://purl.org/dc/dcmitype/StillImage" />
      </cc:Work>
    </rdf:RDF>
  </metadata>
  <g
     inkscape:label="Electron shell"
     inkscape:groupmode="layer"
     id="layer1"
     transform="translate(-99.458241,-114.8)"
     style="display:inline">
    <path
       style="color:#000000;font-style:normal;font-variant:normal;font-weight:normal;font-stretch:normal;font-size:medium;line-height:normal;font-family:sans-serif;font-variant-ligatures:normal;font-variant-position:normal;font-variant-caps:normal;font-variant-numeric:normal;font-variant-alternates:normal;font-feature-settings:normal;text-indent:0;text-align:start;text-decoration:none;text-decoration-line:none;text-decoration-style:solid;text-decoration-color:#000000;letter-spacing:normal;word-spacing:normal;text-transform:none;writing-mode:lr-tb;direction:ltr;text-orientation:mixed;dominant-baseline:auto;baseline-shift:baseline;text-anchor:start;white-space:normal;shape-padding:0;clip-rule:nonzero;display:inline;overflow:visible;visibility:visible;opacity:1;isolation:auto;mix-blend-mode:normal;color-interpolation:sRGB;color-interpolation-filters:linearRGB;solid-color:#000000;solid-opacity:1;vector-effect:none;fill:#000000;fill-opacity:1;fill-rule:nonzero;stroke:none;stroke-width:1.35;stroke-linecap:butt;stroke-linejoin:miter;stroke-miterlimit:4;stroke-dasharray:none;stroke-dashoffset:0;stroke-opacity:1;color-rendering:auto;image-rendering:auto;shape-rendering:auto;text-rendering:auto;enable-background:accumulate"
       d="m 143.70678,116.86604 c -22.1755,-2.04709 -41.82821,14.28385 -43.875294,36.45935 -2.047092,22.17551 14.283844,41.8282 36.459344,43.8753 15.05215,1.38951 28.93964,-5.69027 36.95014,-17.31582 a 16.720196,16.720196 0 0 1 -2.06216,0.56576 c -7.85854,10.44615 -20.78545,16.69638 -34.76391,15.40598 -21.44898,-1.98002 -37.219366,-20.95816 -35.23934,-42.40714 1.98003,-21.449 20.95815,-37.21938 42.40715,-35.23935 18.25381,1.68507 32.39183,15.68213 34.9794,33.03509 a 16.720196,16.720196 0 0 1 1.55064,1.49556 C 178.1262,134.01952 163.1683,118.6626 143.70678,116.86604 Z"
       id="path3722"
       inkscape:connector-curvature="0" />
    <path
       style="color:#000000;font-style:normal;font-variant:normal;font-weight:normal;font-stretch:normal;font-size:medium;line-height:normal;font-family:sans-serif;font-variant-ligatures:normal;font-variant-position:normal;font-variant-caps:normal;font-variant-numeric:normal;font-variant-alternates:normal;font-feature-settings:normal;text-indent:0;text-align:start;text-decoration:none;text-decoration-line:none;text-decoration-style:solid;text-decoration-color:#000000;letter-spacing:normal;word-spacing:normal;text-transform:none;writing-mode:lr-tb;direction:ltr;text-orientation:mixed;dominant-baseline:auto;baseline-shift:baseline;text-anchor:start;white-space:normal;shape-padding:0;clip-rule:nonzero;display:inline;overflow:visible;visibility:visible;opacity:1;isolation:auto;mix-blend-mode:normal;color-interpolation:sRGB;color-interpolation-filters:linearRGB;solid-color:#000000;solid-opacity:1;vector-effect:none;fill:#000000;fill-opacity:1;fill-rule:nonzero;stroke:none;stroke-width:1.35;stroke-linecap:butt;stroke-linejoin:miter;stroke-miterlimit:4;stroke-dasharray:none;stroke-dashoffset:0;stroke-opacity:1;color-rendering:auto;image-rendering:auto;shape-rendering:auto;text-rendering:auto;enable-background:accumulate"
       d="m 143.11326,126.76495 c -16.70982,-1.67483 -31.62935,10.52594 -33.30418,27.23575 -1.67481,16.70982 10.52647,31.6294 27.23628,33.30423 8.96529,0.89859 17.4139,-2.19851 23.57938,-7.84195 a 16.720196,16.720196 0 0 1 -1.26601,-0.66493 c -5.85633,5.18577 -13.77612,8.00653 -22.17881,7.16434 -15.98385,-1.60207 -27.62983,-15.84322 -26.02778,-31.82708 1.60206,-15.98385 15.84271,-27.62988 31.82655,-26.02782 11.70242,1.17293 21.07855,9.12132 24.6338,19.56771 a 16.720196,16.720196 0 0 1 1.42824,0.0361 c -3.60176,-11.15772 -13.52105,-19.70293 -25.92747,-20.94642 z"
       id="path3722-3"
       inkscape:connector-curvature="0" />
    <circle
       style="fill:#000000;fill-opacity:1;stroke:#000000;stroke-width:0.452501;stroke-miterlimit:4;stroke-dasharray:none;stroke-opacity:1"
       id="path4547"
       cx="140"
       cy="197"
       r="1.7737494" />
    <circle
       style="fill:#000000;fill-opacity:1;stroke:#000000;stroke-width:0.452501;stroke-miterlimit:4;stroke-dasharray:none;stroke-opacity:1"
       id="path4547-6"
       cx="140"
       cy="187"
       r="1.7737494" />
    <circle
       style="fill:#000000;fill-opacity:1;stroke:#000000;stroke-width:0.452501;stroke-miterlimit:4;stroke-dasharray:none;stroke-opacity:1"
       id="path4547-7"
       cx="140"
       cy="127"
       r="1.7737494" />
    <circle
       style="fill:#000000;fill-opacity:1;stroke:#000000;stroke-width:0.452501;stroke-miterlimit:4;stroke-dasharray:none;stroke-opacity:1"
       id="path4547-5"
       cx="140"
       cy="117"
       r="1.7737494" />
    <circle
       style="fill:#000000;fill-opacity:1;stroke:#000000;stroke-width:0.452501;stroke-miterlimit:4;stroke-dasharray:none;stroke-opacity:1"
       id="path4547-7-5"
       cx="105.359"
       cy="137"
       r="1.7737494" />
    <circle
       style="fill:#000000;fill-opacity:1;stroke:#000000;stroke-width:0.452501;stroke-miterlimit:4;stroke-dasharray:none;stroke-opacity:1"
       id="path4547-7-6"
       cx="174.64101"
       cy="137"
       r="1.7737494" />
    <circle
       style="fill:#000000;fill-opacity:1;stroke:#000000;stroke-width:0.452501;stroke-miterlimit:4;stroke-dasharray:none;stroke-opacity:1"
       id="path4547-7-2"
       cx="105.359"
       cy="177"
       r="1.7737494" />
    <path
       id="text16756"
       style="font-style:normal;font-variant:normal;font-weight:normal;font-stretch:normal;font-size:56.4444px;line-height:1.25;font-family:Evolventa;-inkscape-font-specification:'Evolventa, Normal';font-variant-ligatures:normal;font-variant-caps:normal;font-variant-numeric:normal;font-variant-east-asian:normal;fill:#000000;fill-opacity:1;stroke:none;stroke-width:0.999999"
       d="M 103.16992,81.560547 V 239.16406 h 15.72852 V 95.832031 h 22.1875 c 16.1111,0 28.19445,1.909074 36.25,5.728519 5.34722,2.56944 9.44379,6.45768 12.29101,11.66601 2.91667,5.20833 4.375,11.42427 4.375,18.64649 0,17.36109 -7.60418,28.29861 -22.8125,32.8125 -7.22221,2.01388 -19.30557,3.01953 -36.25,3.01953 l 53.125,71.45898 h 19.58399 l -44.16602,-58.85351 c 15.13888,-1.59722 26.66537,-6.49307 34.58203,-14.6875 7.98611,-8.26389 11.98047,-19.44576 11.98047,-33.54297 0,-9.58333 -1.9451,-17.98482 -5.83398,-25.20703 -3.81944,-7.22222 -9.41038,-12.985467 -16.77149,-17.291019 -9.65277,-5.347218 -24.75696,-8.021484 -45.3125,-8.021484 z"
       transform="matrix(0.26458333,0,0,0.26458333,99.661992,115)" />
    <path
       style="font-style:normal;font-variant:normal;font-weight:normal;font-stretch:normal;font-size:47.625px;line-height:0;font-family:Evolventa;-inkscape-font-specification:'Evolventa, Normal';font-variant-ligatures:normal;font-variant-caps:normal;font-variant-numeric:normal;font-variant-east-asian:normal;letter-spacing:-0.79375px;fill:#000000;fill-opacity:1;stroke:none;stroke-width:0.264583"
       sodipodi:type="inkscape:offset"
       inkscape:radius="0.17949048"
       inkscape:original="M 209.60156 142.35352 L 209.60156 155.63281 C 206.95056 152.45471 203.53943 150.86523 199.36914 150.86523 C 196.76465 150.86523 194.39929 151.46252 192.27539 152.65625 C 190.16699 153.84998 188.50806 155.49304 187.29883 157.58594 C 186.1051 159.67883 185.50977 162.01245 185.50977 164.58594 C 185.50977 167.12842 186.12891 169.43823 187.36914 171.51562 C 188.60938 173.59302 190.30798 175.22021 192.46289 176.39844 C 194.6333 177.57666 197.04236 178.16602 199.69336 178.16602 C 201.86377 178.16602 203.71716 177.74731 205.25195 176.91016 C 206.80225 176.073 208.25281 174.70972 209.60156 172.81836 L 209.60156 177.53906 L 213.13477 177.53906 L 213.13477 142.35352 L 209.60156 142.35352 z M 168.83789 150.86523 C 166.35742 150.86523 164.08728 151.46252 162.02539 152.65625 C 159.9635 153.84998 158.3363 155.48511 157.14258 157.5625 C 155.94885 159.63989 155.35156 161.91992 155.35156 164.40039 C 155.35156 166.29175 155.70874 168.0896 156.42188 169.79492 C 157.13501 171.50024 158.10339 172.96472 159.32812 174.18945 C 160.55286 175.41418 162.01733 176.38257 163.72266 177.0957 C 165.42798 177.80884 167.22583 178.16602 169.11719 178.16602 C 171.95422 178.16602 174.53589 177.32068 176.86133 175.63086 C 179.18677 173.92554 180.82983 171.70105 181.79102 168.95703 L 178.11719 168.95703 C 177.38855 170.73987 176.18799 172.1825 174.51367 173.2832 C 172.83936 174.36841 171.00977 174.91016 169.02539 174.91016 C 166.34338 174.91016 164.0177 174.01917 162.04883 172.23633 C 160.07996 170.43799 159.02625 168.25122 158.88672 165.67773 L 182.44336 165.67773 C 182.44336 163.94141 182.32629 162.50073 182.09375 161.35352 C 181.86121 160.1908 181.45837 159.05969 180.88477 157.95898 C 179.75305 155.77307 178.10205 154.04272 175.93164 152.77148 C 173.77673 151.50024 171.41138 150.86523 168.83789 150.86523 z M 231.13086 150.86523 C 227.1311 150.86523 223.8291 152.15906 221.22461 154.74805 C 218.62012 157.32153 217.31836 160.58582 217.31836 164.53906 C 217.31836 167.11255 217.91565 169.43823 219.10938 171.51562 C 220.3186 173.59302 221.98352 175.22021 224.10742 176.39844 C 226.23132 177.57666 228.60461 178.16602 231.22461 178.16602 C 235.05383 178.16602 238.2229 176.88013 240.73438 174.30664 C 243.24585 171.73315 244.50195 168.49268 244.50195 164.58594 C 244.50195 161.99695 243.92053 159.6554 242.75781 157.5625 C 241.6106 155.4696 240.01514 153.83447 237.96875 152.65625 C 235.93787 151.46252 233.65784 150.86523 231.13086 150.86523 z M 244.95508 151.49414 L 254.02539 164.25977 L 244.95508 177.53906 L 248.95508 177.53906 L 256.02539 167.09766 L 263.02344 177.53906 L 267.07031 177.53906 L 257.95508 164.25977 L 267.07031 151.49414 L 263.02344 151.49414 L 256.02539 161.53906 L 248.95508 151.49414 L 244.95508 151.49414 z M 168.83789 154.09766 C 171.36487 154.09766 173.52783 154.84973 175.32617 156.35352 C 177.14001 157.8573 178.34253 159.9032 178.93164 162.49219 L 158.97852 162.49219 C 159.45911 159.98071 160.60608 157.95862 162.41992 156.42383 C 164.23376 154.87354 166.37292 154.09766 168.83789 154.09766 z M 199.13672 154.09766 C 202.11328 154.09766 204.62354 155.10571 206.66992 157.12109 C 208.71631 159.12097 209.74023 161.56177 209.74023 164.44531 C 209.74023 167.32886 208.74805 169.79541 206.76367 171.8418 C 204.7793 173.88818 202.39209 174.91016 199.60156 174.91016 C 196.6405 174.91016 194.14417 173.91003 192.11328 171.91016 C 190.0979 169.89478 189.08984 167.42224 189.08984 164.49219 C 189.08984 161.60864 190.06616 159.15991 192.01953 157.14453 C 193.9729 155.11365 196.34619 154.09766 199.13672 154.09766 z M 230.85156 154.09766 C 233.79712 154.09766 236.21606 155.08984 238.10742 157.07422 C 239.99878 159.04309 240.94531 161.56323 240.94531 164.63281 C 240.94531 167.62488 240.02258 170.08948 238.17773 172.02734 C 236.34839 173.94971 233.9989 174.91016 231.13086 174.91016 C 228.1853 174.91016 225.74451 173.93384 223.80664 171.98047 C 221.86877 170.0271 220.89844 167.5625 220.89844 164.58594 C 220.89844 161.57837 221.84497 159.08203 223.73633 157.09766 C 225.62769 155.09778 227.99902 154.09766 230.85156 154.09766 z "
       xlink:href="#text22348"
       id="path877"
       d="m 209.60156,142.17383 a 0.17950843,0.17950843 0 0 0 -0.17968,0.17969 v 12.81836 c -2.63648,-2.97373 -5.99783,-4.48633 -10.05274,-4.48633 -2.63193,0 -5.03041,0.60536 -7.18164,1.81445 -2.13472,1.20863 -3.82047,2.87686 -5.04492,4.99609 -1.20946,2.12046 -1.8125,4.48868 -1.8125,7.08985 0,2.57162 0.62799,4.91639 1.88476,7.02148 1.25607,2.10391 2.98101,3.75667 5.16211,4.94922 2.1973,1.19282 4.63881,1.78906 7.31641,1.78906 2.19349,0 4.0785,-0.42315 5.64453,-1.27734 1.45697,-0.78676 2.81441,-2.04588 4.08399,-3.72852 v 4.19922 a 0.17950843,0.17950843 0 0 0 0.17968,0.17969 h 3.53321 a 0.17950843,0.17950843 0 0 0 0.17968,-0.17969 v -35.18554 a 0.17950843,0.17950843 0 0 0 -0.17968,-0.17969 z m -40.76367,8.51172 c -2.50928,0 -4.81348,0.60511 -6.90234,1.81445 -2.08796,1.20882 -3.74067,2.86945 -4.94922,4.97266 -1.20911,2.10415 -1.81445,4.41845 -1.81445,6.92773 0,1.91396 0.36175,3.73583 1.08398,5.46289 0.72133,1.72494 1.70344,3.21126 2.94531,4.45313 1.24188,1.24186 2.72818,2.22398 4.45313,2.94531 1.72706,0.72223 3.54893,1.08398 5.46289,1.08398 2.87268,0 5.49609,-0.86009 7.84961,-2.57031 2.35295,-1.7255 4.02185,-3.98408 4.99414,-6.75977 a 0.17950843,0.17950843 0 0 0 -0.16992,-0.23828 h -3.67383 a 0.17950843,0.17950843 0 0 0 -0.16602,0.11133 c -0.71534,1.75032 -1.88808,3.16135 -3.53515,4.24414 -1.64711,1.06758 -3.43892,1.59766 -5.39063,1.59766 -2.64226,0 -4.91667,-0.87135 -6.85547,-2.62695 -1.8886,-1.72503 -2.89751,-3.80154 -3.07617,-6.2461 h 23.34961 a 0.17950843,0.17950843 0 0 0 0.17969,-0.17969 c 0,-1.74438 -0.1175,-3.19498 -0.35352,-4.35937 -0.23597,-1.17986 -0.64559,-2.32655 -1.22656,-3.44141 h 0.002 c -1.14646,-2.21438 -2.82473,-3.97276 -5.02148,-5.25976 h -0.002 c -2.18148,-1.28656 -4.58118,-1.93164 -7.18359,-1.93164 z m 62.29297,0 c -4.03847,0 -7.39612,1.31416 -10.0332,3.93554 -2.6372,2.6058 -3.95899,5.92533 -3.95899,9.91797 0,2.60126 0.60478,4.96127 1.81445,7.06641 a 0.17950843,0.17950843 0 0 0 0.002,0 c 1.22475,2.10409 2.91405,3.75628 5.06445,4.94922 2.1513,1.19342 4.55816,1.79101 7.20508,1.79101 3.8694,0 7.09535,-1.30794 9.63867,-3.91406 2.54318,-2.60598 3.81836,-5.90049 3.81836,-9.8457 0,-2.61493 -0.58848,-4.98958 -1.76562,-7.10938 l -0.002,-0.002 c -1.16145,-2.1179 -2.78178,-3.77929 -4.85351,-4.97266 l -0.002,-0.002 c -2.05835,-1.20932 -4.37341,-1.81445 -6.92773,-1.81445 z m 13.82422,0.6289 a 0.17950843,0.17950843 0 0 0 -0.14649,0.28321 l 8.99805,12.66406 -9,13.17578 a 0.17950843,0.17950843 0 0 0 0.14844,0.28125 h 4 a 0.17950843,0.17950843 0 0 0 0.14844,-0.0781 l 6.92187,-10.22265 6.84961,10.2207 a 0.17950843,0.17950843 0 0 0 0.14844,0.0801 h 4.04687 a 0.17950843,0.17950843 0 0 0 0.14844,-0.28125 l -9.04492,-13.17578 9.04297,-12.66406 a 0.17950843,0.17950843 0 0 0 -0.14649,-0.28321 h -4.04687 a 0.17950843,0.17950843 0 0 0 -0.14649,0.0762 l -6.85156,9.83594 -6.92383,-9.83594 a 0.17950843,0.17950843 0 0 0 -0.14648,-0.0762 z m -76.11719,2.96289 c 2.49137,0 4.60645,0.7376 6.37305,2.21485 1.72853,1.43305 2.87911,3.37227 3.47851,5.82031 h -19.47656 c 0.4978,-2.37319 1.59315,-4.28885 3.32227,-5.75195 a 0.17950843,0.17950843 0 0 0 0.002,0 c 1.78334,-1.52423 3.87348,-2.28321 6.30078,-2.28321 z m 30.29883,0 c 2.93603,0 5.39279,0.98582 7.4082,2.97071 a 0.17950843,0.17950843 0 0 0 0,0.002 c 2.01559,1.96977 3.01563,4.35426 3.01563,7.19531 0,2.84238 -0.97077,5.25538 -2.92578,7.27149 -1.95508,2.01617 -4.2865,3.01367 -7.03321,3.01367 -2.92013,0 -5.36171,-0.97869 -7.36133,-2.94727 -1.98463,-1.98463 -2.9707,-4.40213 -2.9707,-7.29101 0,-2.84304 0.9553,-5.23799 2.87891,-7.22266 1.92375,-2.00008 4.24132,-2.99219 6.98828,-2.99219 z m 31.71484,0 c 2.90526,0 5.26576,0.96924 7.125,2.91993 a 0.17950843,0.17950843 0 0 0 0.002,0.002 c 1.85907,1.93526 2.78711,4.40091 2.7871,7.43359 0,2.95517 -0.90569,5.36702 -2.71874,7.27149 -1.79702,1.8884 -4.08805,2.82617 -6.91602,2.82617 -2.9059,0 -5.29141,-0.95585 -7.19727,-2.87695 -1.9058,-1.92105 -2.85547,-4.33003 -2.85547,-7.26758 0,-2.96991 0.92894,-5.41364 2.78907,-7.36524 1.86042,-1.96717 4.17379,-2.94336 6.98437,-2.94336 z"
       inkscape:href="#text22348" />
    <path
       style="font-style:normal;font-variant:normal;font-weight:normal;font-stretch:normal;font-size:44.0972px;line-height:1.25;font-family:Evolventa;-inkscape-font-specification:'Evolventa, Normal';font-variant-ligatures:normal;font-variant-caps:normal;font-variant-numeric:normal;font-variant-east-asian:normal;letter-spacing:-1.5875px;fill:#000000;fill-opacity:1;stroke:none;stroke-width:0.264583"
       sodipodi:type="inkscape:offset"
       inkscape:radius="0.30518857"
       inkscape:original="M 294.76172 144.41211 C 291.57501 144.41211 288.63938 145.1666 285.95508 146.67383 C 283.28513 148.1667 281.17529 150.20524 279.625 152.78906 C 278.07471 155.37288 277.29883 158.20674 277.29883 161.29297 C 277.29883 163.56099 277.75904 165.73695 278.67773 167.81836 C 279.59643 169.88542 280.82344 171.67959 282.35938 173.20117 C 283.90967 174.7084 285.74662 175.91402 287.87109 176.81836 C 290.00992 177.70834 292.23384 178.15234 294.54492 178.15234 C 296.85601 178.15234 299.07474 177.70834 301.19922 176.81836 C 303.32369 175.91402 305.15352 174.7084 306.68945 173.20117 C 308.23975 171.69394 309.46676 169.89977 310.37109 167.81836 C 311.28979 165.73695 311.75 163.56099 311.75 161.29297 C 311.75 159.0393 311.28979 156.87243 310.37109 154.79102 C 309.46676 152.69525 308.24688 150.89395 306.71094 149.38672 C 305.18935 147.87949 303.38092 146.67387 301.28516 145.76953 C 299.20375 144.86519 297.02974 144.41211 294.76172 144.41211 z M 323.14648 144.41211 C 320.5196 144.41211 318.35077 145.2379 316.64258 146.88867 C 314.94874 148.52509 314.10352 150.62067 314.10352 153.17578 C 314.10352 154.30979 314.30315 155.39421 314.70508 156.42773 C 315.10701 157.44691 315.67417 158.29409 316.40625 158.96875 C 317.05221 159.586 317.7477 160.07991 318.49414 160.45312 C 319.25493 160.81199 320.58371 161.28646 322.47852 161.875 C 324.81831 162.56402 326.51266 163.26665 327.56055 163.98438 C 329.02471 165.03226 329.75586 166.59115 329.75586 168.6582 C 329.75586 170.53865 329.14592 172.08846 327.92578 173.30859 C 326.72 174.52873 325.18445 175.13867 323.31836 175.13867 C 322.29919 175.13867 321.3308 174.93708 320.41211 174.53516 C 319.50777 174.13323 318.76041 173.5732 318.17188 172.85547 C 317.68382 172.28129 317.31112 171.66422 317.05273 171.00391 C 316.80871 170.32924 316.63564 169.47493 316.53516 168.44141 L 313.04688 168.44141 C 313.20478 171.36974 314.21076 173.72394 316.0625 175.50391 C 317.91424 177.26952 320.30409 178.15234 323.23242 178.15234 C 326.06027 178.15234 328.40735 177.23387 330.27344 175.39648 C 332.13953 173.5591 333.07227 171.2548 333.07227 168.48438 C 333.07227 167.06327 332.78512 165.74357 332.21094 164.52344 C 331.65111 163.3033 330.86097 162.3064 329.8418 161.53125 C 329.13842 161.02884 328.35737 160.59002 327.49609 160.2168 C 326.64917 159.84358 325.40595 159.41384 323.76953 158.92578 C 322.27666 158.48079 321.20846 158.12039 320.5625 157.84766 C 319.9309 157.57492 319.39226 157.25212 318.94727 156.87891 C 318.47357 156.44827 318.10086 155.89537 317.82812 155.2207 C 317.55539 154.54604 317.41797 153.83628 317.41797 153.08984 C 317.41797 151.43907 317.94948 150.08177 319.01172 149.01953 C 320.07396 147.94294 321.42413 147.40625 323.06055 147.40625 C 324.71132 147.40625 326.05954 147.93581 327.10742 148.99805 C 328.16966 150.06028 328.75821 151.47462 328.87305 153.24023 L 332.27539 153.24023 C 332.21797 150.599 331.34941 148.46777 329.66992 146.8457 C 327.99044 145.22364 325.81643 144.41211 323.14648 144.41211 z M 294.37305 147.40625 C 296.2822 147.40625 298.1049 147.77182 299.8418 148.50391 C 301.5787 149.23599 303.07342 150.22576 304.32227 151.47461 C 305.58547 152.7091 306.58237 154.18761 307.31445 155.91016 C 308.06089 157.6327 308.43359 159.44114 308.43359 161.33594 C 308.43359 163.18768 308.06089 164.96759 307.31445 166.67578 C 306.58237 168.36962 305.5926 169.83387 304.34375 171.06836 C 303.0949 172.30285 301.6164 173.29458 299.9082 174.04102 C 298.20001 174.7731 296.41101 175.13867 294.54492 175.13867 C 292.04723 175.13867 289.73063 174.5216 287.5918 173.28711 C 285.45297 172.03826 283.75148 170.35104 282.48828 168.22656 C 281.23943 166.08773 280.61523 163.77631 280.61523 161.29297 C 280.61523 158.83834 281.23943 156.54313 282.48828 154.4043 C 283.73713 152.26547 285.41722 150.56398 287.52734 149.30078 C 289.65182 148.03758 291.93277 147.40625 294.37305 147.40625 z "
       xlink:href="#text78428"
       id="path978"
       d="m 294.76172,144.10742 c -3.23488,0 -6.22782,0.76833 -8.95703,2.30078 -2.71278,1.51714 -4.86499,3.59724 -6.44141,6.22461 -1.57783,2.62972 -2.36914,5.52278 -2.36914,8.66016 0,2.3093 0.46908,4.52959 1.4043,6.64844 0.93304,2.09932 2.18267,3.92775 3.74609,5.47656 a 0.30521909,0.30521909 0 0 0 0.002,0.002 c 1.57837,1.53452 3.4494,2.7619 5.60547,3.67969 a 0.30521909,0.30521909 0 0 0 0.002,0 c 2.17486,0.90498 4.44084,1.35742 6.79101,1.35742 2.35018,0 4.61053,-0.45216 6.77149,-1.35742 a 0.30521909,0.30521909 0 0 0 0.002,0 c 2.1563,-0.91789 4.01964,-2.14457 5.58398,-3.67969 1.57898,-1.53511 2.82912,-3.36405 3.74805,-5.47851 v -0.002 c 0.93473,-2.11834 1.4043,-4.33779 1.4043,-6.64648 0,-2.29461 -0.4697,-4.50501 -1.4043,-6.62305 v -0.002 c -0.91823,-2.12744 -2.16089,-3.96305 -3.72461,-5.49805 -1.54967,-1.53505 -3.39181,-2.76156 -5.51953,-3.67969 -2.11848,-0.92044 -4.33587,-1.38281 -6.64453,-1.38281 z m 28.38476,0 c -2.69084,0 -4.95235,0.85737 -6.71679,2.5625 -1.75099,1.69163 -2.63086,3.88345 -2.63086,6.50586 0,1.16983 0.2054,2.29437 0.62109,3.36328 a 0.30521909,0.30521909 0 0 0 0.002,0 c 0.41597,1.05479 1.00745,1.94329 1.77343,2.65039 6.8e-4,6.5e-4 0.001,0.001 0.002,0.002 6.7e-4,6.2e-4 0.001,0.001 0.002,0.002 0.66514,0.63486 1.38483,1.14653 2.1582,1.5332 a 0.30521909,0.30521909 0 0 0 0.006,0.002 c 0.79093,0.37308 2.12481,0.84716 4.02539,1.4375 a 0.30521909,0.30521909 0 0 0 0.004,0.002 c 2.32415,0.68441 3.99813,1.38482 4.99609,2.06836 1.38282,0.99235 2.0625,2.42961 2.0625,4.42187 0,1.81446 -0.5755,3.27083 -1.74023,4.43555 a 0.30521909,0.30521909 0 0 0 -0.002,0 c -1.15046,1.16417 -2.59103,1.74023 -4.39062,1.74023 -0.97893,0 -1.90233,-0.19275 -2.7832,-0.57812 -0.86522,-0.38454 -1.5694,-0.91379 -2.12696,-1.59375 a 0.30521909,0.30521909 0 0 0 -0.004,-0.004 c -0.46784,-0.55038 -0.8208,-1.13797 -1.06641,-1.76562 -0.23044,-0.63967 -0.39961,-1.468 -0.49805,-2.48047 a 0.30521909,0.30521909 0 0 0 -0.30468,-0.27539 h -3.48828 a 0.30521909,0.30521909 0 0 0 -0.30469,0.32031 c 0.16118,2.98914 1.20052,5.43271 3.10937,7.26758 1.90988,1.82105 4.39119,2.73242 7.38086,2.73242 2.89393,0 5.33484,-0.95227 7.25586,-2.84375 1.92076,-1.89121 2.88867,-4.28998 2.88867,-7.1289 0,-1.46071 -0.29631,-2.82761 -0.88867,-4.0879 l -0.002,-0.002 c -0.57889,-1.26067 -1.40066,-2.30054 -2.45899,-3.10547 a 0.30521909,0.30521909 0 0 0 -0.008,-0.006 c -0.72149,-0.51534 -1.52144,-0.96469 -2.40039,-1.3457 h -0.002 c -0.86862,-0.38267 -2.11766,-0.81493 -3.75977,-1.30469 -1.48673,-0.44316 -2.54999,-0.80119 -3.17383,-1.06445 l -0.002,-0.002 c -0.60554,-0.26175 -1.11626,-0.56923 -1.5332,-0.91797 -0.43457,-0.39626 -0.77966,-0.90611 -1.03711,-1.54297 -0.25821,-0.63873 -0.38867,-1.30664 -0.38867,-2.01563 0,-1.58526 0.49758,-2.84915 1.5039,-3.85546 a 0.30521909,0.30521909 0 0 0 0.002,0 c 1.00704,-1.02066 2.26233,-1.52344 3.83203,-1.52344 1.5855,0 2.83849,0.49678 3.83007,1.50195 a 0.30521909,0.30521909 0 0 0 0.002,0 c 1.00632,1.00631 1.56464,2.33812 1.67578,4.04688 a 0.30521909,0.30521909 0 0 0 0.30469,0.28515 h 3.40234 a 0.30521909,0.30521909 0 0 0 0.30469,-0.31054 c -0.0588,-2.70453 -0.95951,-4.92908 -2.69727,-6.60743 -1.73755,-1.67815 -4.00453,-2.51953 -6.73633,-2.51953 z m -28.77343,3.60352 c 1.87019,0 3.64962,0.35768 5.34961,1.07422 1.70392,0.71818 3.165,1.68453 4.38476,2.90429 a 0.30521909,0.30521909 0 0 0 0.002,0.004 c 1.23348,1.20545 2.20616,2.64732 2.92382,4.33594 a 0.30521909,0.30521909 0 0 0 0.002,0.002 c 0.73019,1.68504 1.09375,3.44991 1.09375,5.30469 0,1.81079 -0.36354,3.54573 -1.09375,5.21679 a 0.30521909,0.30521909 0 0 0 0,0.002 c -0.71775,1.66068 -1.68588,3.09053 -2.90625,4.29687 -1.22072,1.20668 -2.66634,2.17574 -4.3418,2.90821 -1.67109,0.71617 -3.41596,1.07421 -5.24219,1.07421 -2.44682,0 -4.70493,-0.60233 -6.79883,-1.81054 h -0.002 c -2.09486,-1.22349 -3.75467,-2.87075 -4.99219,-4.95117 l -0.002,-0.002 c -1.222,-2.09374 -1.83008,-4.34603 -1.83008,-6.77734 0,-2.40289 0.60879,-4.63941 1.83203,-6.73438 1.22429,-2.09676 2.8639,-3.75826 4.93164,-4.99609 2.0804,-1.23699 4.30181,-1.85156 6.68946,-1.85156 z"
       inkscape:href="#text78428" />
  </g>
  <g
     inkscape:groupmode="layer"
     id="layer2"
     inkscape:label="Text"
     style="display:inline;opacity:1"
     transform="translate(0.20426867,0.1999997)" />
</svg>
